<?xml version="1.0" encoding="UTF-8"?>
<!DOCTYPE svg PUBLIC "-//W3C//DTD SVG 1.1//EN" "http://www.w3.org/Graphics/SVG/1.1/DTD/svg11.dtd">
<svg xmlns="http://www.w3.org/2000/svg" version="1.1" width="814px" height="307px" style="shape-rendering:geometricPrecision; text-rendering:geometricPrecision; image-rendering:optimizeQuality; fill-rule:evenodd; clip-rule:evenodd" xmlns:xlink="http://www.w3.org/1999/xlink">
<g><path style="opacity:1" fill="#e7e7e7" d="M -0.5,-0.5 C 270.833,-0.5 542.167,-0.5 813.5,-0.5C 813.5,101.833 813.5,204.167 813.5,306.5C 542.167,306.5 270.833,306.5 -0.5,306.5C -0.5,204.167 -0.5,101.833 -0.5,-0.5 Z"/></g>
<g><path style="opacity:1" fill="#020202" d="M 103.5,13.5 C 306.167,13.3333 508.834,13.5 711.5,14C 747.984,17.2681 772.484,36.1014 785,70.5C 785.675,76.315 786.675,81.9817 788,87.5C 788.946,136.519 788.613,185.519 787,234.5C 779.792,261.705 763.292,280.872 737.5,292C 731.638,293.944 725.638,295.278 719.5,296C 511.5,296.667 303.5,296.667 95.5,296C 61.7994,290.127 39.7994,270.793 29.5,238C 29.0833,233.006 28.25,228.173 27,223.5C 26.3333,178.167 26.3333,132.833 27,87.5C 34.0978,43.5656 59.5978,18.899 103.5,13.5 Z"/></g>
<g><path style="opacity:1" fill="#e9e9e9" d="M 230.5,117.5 C 226.327,132.989 217.66,144.656 204.5,152.5C 207.152,154.165 209.819,155.832 212.5,157.5C 237.292,175.862 247.292,200.529 242.5,231.5C 240.665,236.344 237.332,240.01 232.5,242.5C 197.267,243.17 162.1,243.837 127,244.5C 120.679,242.011 116.179,237.678 113.5,231.5C 113.194,221.75 113.527,212.084 114.5,202.5C 115.268,200.285 115.935,197.952 116.5,195.5C 120.383,179.389 129.383,167.056 143.5,158.5C 145.857,155.706 148.523,154.04 151.5,153.5C 146.232,149.608 141.399,145.274 137,140.5C 135.385,137.55 133.385,134.884 131,132.5C 128.444,127.329 126.61,121.996 125.5,116.5C 122.003,85.1404 135.003,64.1404 164.5,53.5C 195.095,48.5455 216.595,60.2121 229,88.5C 230.359,98.1094 230.859,107.776 230.5,117.5 Z"/></g>
<g><path style="opacity:1" fill="#e9e9e9" d="M 689.5,117.5 C 686.046,131.807 678.046,142.974 665.5,151C 665.833,151.333 666.167,151.667 666.5,152C 665.692,152.308 665.025,152.808 664.5,153.5C 667.014,154.588 669.348,155.922 671.5,157.5C 682.999,165.685 691.665,176.352 697.5,189.5C 699.091,193.732 700.091,198.066 700.5,202.5C 701.473,212.084 701.806,221.75 701.5,231.5C 699.111,237.958 694.611,242.292 688,244.5C 652.518,244.165 617.185,243.165 582,241.5C 581.667,242.5 581.333,243.5 581,244.5C 579.72,241.111 577.553,238.444 574.5,236.5C 573.83,234.709 573.163,233.042 572.5,231.5C 569.281,210.248 573.615,190.914 585.5,173.5C 590.235,168.094 595.569,163.428 601.5,159.5C 604.198,156.804 607.198,154.471 610.5,152.5C 597.698,143.892 589.031,132.225 584.5,117.5C 580.699,85.7462 593.699,64.4128 623.5,53.5C 656.184,48.4208 678.017,61.4208 689,92.5C 689.5,100.827 689.666,109.16 689.5,117.5 Z"/></g>
<g><path style="opacity:1" fill="#e5e5e5" d="M 472.5,136.5 C 470.703,136.935 468.703,136.935 466.5,136.5C 458.95,133.993 451.45,133.993 444,136.5C 443.257,138.441 443.424,140.274 444.5,142C 453.414,145.791 462.081,150.124 470.5,155C 480.196,165.517 481.029,176.683 473,188.5C 466.946,193.223 460.112,196.057 452.5,197C 442.147,198.104 432.147,196.937 422.5,193.5C 421.573,186.557 421.24,179.557 421.5,172.5C 425.281,172.011 428.947,172.844 432.5,175C 439.823,176.549 447.157,176.715 454.5,175.5C 454.838,172.675 453.838,170.508 451.5,169C 440.542,165.914 431.042,160.414 423,152.5C 414.68,132.796 420.847,119.963 441.5,114C 451.689,113.169 461.689,114.169 471.5,117C 472.126,117.75 472.626,118.584 473,119.5C 473.818,125.349 473.652,131.015 472.5,136.5 Z"/></g>
<g><path style="opacity:1" fill="#e6e6e6" d="M 334.5,122.5 C 334.5,120.833 334.5,119.167 334.5,117.5C 341.833,117.5 349.167,117.5 356.5,117.5C 358.945,119.256 360.778,121.589 362,124.5C 366.254,133.079 370.421,141.745 374.5,150.5C 375.478,150.023 376.311,149.357 377,148.5C 380.316,140.023 383.982,131.69 388,123.5C 388.957,120.978 390.457,118.811 392.5,117C 400.167,116.333 407.833,116.333 415.5,117C 416.059,117.725 416.392,118.558 416.5,119.5C 404.773,141.283 393.273,163.283 382,185.5C 380.046,189.282 377.546,192.615 374.5,195.5C 360.79,171.368 347.457,147.034 334.5,122.5 Z"/></g>
<g><path style="opacity:1" fill="#a4a4a4" d="M 356.5,117.5 C 349.167,117.5 341.833,117.5 334.5,117.5C 334.5,119.167 334.5,120.833 334.5,122.5C 332.595,120.951 332.261,119.118 333.5,117C 341.345,116.178 349.011,116.344 356.5,117.5 Z"/></g>
<g><path style="opacity:1" fill="#575757" d="M 466.5,136.5 C 468.703,136.935 470.703,136.935 472.5,136.5C 472.53,137.497 472.03,138.164 471,138.5C 469.272,138.101 467.772,137.434 466.5,136.5 Z"/></g>
<g><path style="opacity:1" fill="#cfcfcf" d="M 230.5,117.5 C 230.834,128.914 227.667,139.248 221,148.5C 217.934,151.396 215.101,154.396 212.5,157.5C 209.819,155.832 207.152,154.165 204.5,152.5C 217.66,144.656 226.327,132.989 230.5,117.5 Z"/></g>
<g><path style="opacity:1" fill="#cfcfcf" d="M 125.5,116.5 C 126.61,121.996 128.444,127.329 131,132.5C 133.385,134.884 135.385,137.55 137,140.5C 141.399,145.274 146.232,149.608 151.5,153.5C 148.523,154.04 145.857,155.706 143.5,158.5C 138.506,152.987 134.006,146.987 130,140.5C 126.098,132.973 124.598,124.973 125.5,116.5 Z"/></g>
<g><path style="opacity:1" fill="#cfcfcf" d="M 689.5,117.5 C 690.22,125.384 688.886,132.884 685.5,140C 683.538,142.857 681.705,145.691 680,148.5C 676.962,151.369 674.129,154.369 671.5,157.5C 669.348,155.922 667.014,154.588 664.5,153.5C 665.025,152.808 665.692,152.308 666.5,152C 666.167,151.667 665.833,151.333 665.5,151C 678.046,142.974 686.046,131.807 689.5,117.5 Z"/></g>
<g><path style="opacity:1" fill="#cecece" d="M 584.5,117.5 C 589.031,132.225 597.698,143.892 610.5,152.5C 607.198,154.471 604.198,156.804 601.5,159.5C 602.303,158.577 602.47,157.577 602,156.5C 594.931,150.024 589.598,142.358 586,133.5C 584.809,128.233 584.309,122.899 584.5,117.5 Z"/></g>
<g><path style="opacity:1" fill="#727272" d="M 421.5,172.5 C 421.24,179.557 421.573,186.557 422.5,193.5C 421.883,193.389 421.383,193.056 421,192.5C 420.179,185.654 420.346,178.987 421.5,172.5 Z"/></g>
<g><path style="opacity:1" fill="#818181" d="M 116.5,195.5 C 115.935,197.952 115.268,200.285 114.5,202.5C 113.99,199.612 114.656,197.279 116.5,195.5 Z"/></g>
<g><path style="opacity:1" fill="#3e3e3e" d="M 700.5,202.5 C 701.83,208.463 702.496,214.796 702.5,221.5C 702.5,228.009 702.166,234.342 701.5,240.5C 701.5,237.5 701.5,234.5 701.5,231.5C 701.806,221.75 701.473,212.084 700.5,202.5 Z"/></g>
<g><path style="opacity:1" fill="#d0d0d0" d="M 113.5,231.5 C 116.179,237.678 120.679,242.011 127,244.5C 162.1,243.837 197.267,243.17 232.5,242.5C 237.332,240.01 240.665,236.344 242.5,231.5C 244.714,242.501 240.714,250.168 230.5,254.5C 195.5,255.833 160.5,255.833 125.5,254.5C 115.509,250.193 111.509,242.526 113.5,231.5 Z"/></g>
<g><path style="opacity:1" fill="#cecece" d="M 572.5,231.5 C 573.163,233.042 573.83,234.709 574.5,236.5C 577.553,238.444 579.72,241.111 581,244.5C 581.333,243.5 581.667,242.5 582,241.5C 617.185,243.165 652.518,244.165 688,244.5C 694.611,242.292 699.111,237.958 701.5,231.5C 701.5,234.5 701.5,237.5 701.5,240.5C 701.136,243.801 699.969,246.801 698,249.5C 695.404,251.549 692.571,253.215 689.5,254.5C 654.5,255.833 619.5,255.833 584.5,254.5C 578.778,252.443 575.112,248.443 573.5,242.5C 572.511,238.893 572.177,235.226 572.5,231.5 Z"/></g>
</svg>
