<?xml version="1.0" encoding="UTF-8"?>
<!DOCTYPE svg PUBLIC "-//W3C//DTD SVG 1.1//EN" "http://www.w3.org/Graphics/SVG/1.1/DTD/svg11.dtd">
<svg xmlns="http://www.w3.org/2000/svg" version="1.1" width="1280px" height="533px" style="shape-rendering:geometricPrecision; text-rendering:geometricPrecision; image-rendering:optimizeQuality; fill-rule:evenodd; clip-rule:evenodd" xmlns:xlink="http://www.w3.org/1999/xlink">
<g><path style="opacity:1" fill="#fcfcfc" d="M -0.5,-0.5 C 426.167,-0.5 852.833,-0.5 1279.5,-0.5C 1279.5,177.167 1279.5,354.833 1279.5,532.5C 852.833,532.5 426.167,532.5 -0.5,532.5C -0.5,354.833 -0.5,177.167 -0.5,-0.5 Z"/></g>
<g><path style="opacity:1" fill="#000000" d="M 141.5,42.5 C 474.5,42.3333 807.5,42.5 1140.5,43C 1190.06,50.5817 1225.23,77.0817 1246,122.5C 1248.18,129.571 1250.52,136.571 1253,143.5C 1253.21,150.551 1253.88,157.551 1255,164.5C 1255.67,235.833 1255.67,307.167 1255,378.5C 1247.9,441.933 1213.4,481.433 1151.5,497C 1144.45,497.211 1137.45,497.878 1130.5,499C 803.5,499.667 476.5,499.667 149.5,499C 98.8638,495.108 62.0305,470.608 39,425.5C 32.6477,410.424 28.6477,394.757 27,378.5C 26.3333,306.5 26.3333,234.5 27,162.5C 32.3614,111.948 57.8614,75.4478 103.5,53C 116.09,48.7483 128.756,45.2483 141.5,42.5 Z"/></g>
<g><path style="opacity:1" fill="#fafafa" d="M 964.5,322.5 C 961.155,320.783 957.489,320.116 953.5,320.5C 932.574,315.906 919.574,303.24 914.5,282.5C 899.644,284.994 889.478,279.327 884,265.5C 883.333,251.833 883.333,238.167 884,224.5C 889.321,213.42 898.154,208.42 910.5,209.5C 910.5,207.5 910.5,205.5 910.5,203.5C 911.972,199.081 912.638,194.414 912.5,189.5C 917.436,171.387 928.436,158.22 945.5,150C 948.889,149.224 952.222,148.391 955.5,147.5C 970.833,147.5 986.167,147.5 1001.5,147.5C 1002.13,139.427 1001.47,131.76 999.5,124.5C 989.868,119.577 985.702,111.577 987,100.5C 991.417,85.7565 1001.25,79.5899 1016.5,82C 1034.32,89.8006 1038.15,101.967 1028,118.5C 1025.93,121.07 1023.43,123.07 1020.5,124.5C 1019.5,131.803 1019.17,139.137 1019.5,146.5C 1034.87,146.121 1050.21,146.621 1065.5,148C 1095.78,157.401 1110.11,177.901 1108.5,209.5C 1123.39,207.192 1133.89,212.859 1140,226.5C 1140.67,239.5 1140.67,252.5 1140,265.5C 1133.33,279.753 1122.16,285.42 1106.5,282.5C 1098.83,305.666 1082.83,318.833 1058.5,322C 1027.17,322.5 995.835,322.667 964.5,322.5 Z"/></g>
<g><path style="opacity:1" fill="#fcfcfc" d="M 264.5,102.5 C 312.168,104.362 342.668,128.029 356,173.5C 360.578,214.316 345.411,245.316 310.5,266.5C 347.512,283.805 369.012,312.805 375,353.5C 375.853,366.538 375.52,379.538 374,392.5C 371.177,401.34 365.677,407.84 357.5,412C 300.878,413.65 244.212,413.984 187.5,413C 176.276,410.074 169.443,402.908 167,391.5C 160.663,350.308 171.83,314.808 200.5,285C 209.524,277.807 219.19,271.64 229.5,266.5C 192.519,242.081 178.685,208.081 188,164.5C 201.409,128.925 226.909,108.259 264.5,102.5 Z"/></g>
<g><path style="opacity:1" fill="#6e6e6e" d="M 999.5,124.5 C 1001.47,131.76 1002.13,139.427 1001.5,147.5C 986.167,147.5 970.833,147.5 955.5,147.5C 970.324,146.504 985.324,146.171 1000.5,146.5C 1000.8,139.08 1000.46,131.746 999.5,124.5 Z"/></g>
<g><path style="opacity:1" fill="#030303" d="M 964.5,186.5 C 994.835,186.333 1025.17,186.5 1055.5,187C 1070.45,188.947 1080.28,197.114 1085,211.5C 1085.67,232.5 1085.67,253.5 1085,274.5C 1081.17,286.333 1073.33,294.167 1061.5,298C 1028.17,298.667 994.833,298.667 961.5,298C 948.534,293.698 940.367,284.864 937,271.5C 936.333,252.833 936.333,234.167 937,215.5C 940.244,200.009 949.411,190.343 964.5,186.5 Z"/></g>
<g><path style="opacity:1" fill="#b0b0b0" d="M 912.5,189.5 C 912.638,194.414 911.972,199.081 910.5,203.5C 910.362,198.586 911.028,193.919 912.5,189.5 Z"/></g>
<g><path style="opacity:1" fill="#fafafa" d="M 701.5,202.5 C 716.246,202.016 730.58,204.183 744.5,209C 745,209.5 745.5,210 746,210.5C 746.5,220.828 746.666,231.161 746.5,241.5C 735.212,238.59 723.712,236.59 712,235.5C 708.4,235.881 704.9,236.715 701.5,238C 697.5,241.667 697.5,245.333 701.5,249C 716.628,255.394 730.961,263.061 744.5,272C 758.3,288.096 759.134,304.929 747,322.5C 737.57,332.129 726.07,337.296 712.5,338C 696.447,338.868 680.78,336.868 665.5,332C 664.667,331.167 663.833,330.333 663,329.5C 662.333,319.5 662.333,309.5 663,299.5C 663.374,298.584 663.874,297.75 664.5,297C 672.596,299.692 680.93,302.025 689.5,304C 696.833,304.667 704.167,304.667 711.5,304C 715.95,303.224 717.45,300.724 716,296.5C 714.442,294.641 712.609,293.141 710.5,292C 697.699,286.956 685.365,280.956 673.5,274C 660.689,261.556 656.856,246.722 662,229.5C 670.657,213.92 683.824,204.92 701.5,202.5 Z"/></g>
<g><path style="opacity:1" fill="#fafafa" d="M 532.5,207.5 C 541.582,207.086 550.582,207.586 559.5,209C 563.288,213.406 566.455,218.239 569,223.5C 573.659,234.132 578.325,244.799 583,255.5C 584.386,258.534 586.219,261.2 588.5,263.5C 597.447,245.607 606.447,227.607 615.5,209.5C 628.821,208.334 642.154,208.167 655.5,209C 655.957,209.414 656.291,209.914 656.5,210.5C 637.495,247.848 617.995,284.848 598,321.5C 595.576,326.686 592.409,331.353 588.5,335.5C 586.541,334.252 585.041,332.585 584,330.5C 562.795,292.088 542.128,253.421 522,214.5C 521.187,212.564 520.687,210.564 520.5,208.5C 524.702,208.817 528.702,208.483 532.5,207.5 Z"/></g>
<g><path style="opacity:1" fill="#f6f6f6" d="M 971.5,208.5 C 993.046,207.87 999.879,217.537 992,237.5C 979.087,248.348 968.754,246.348 961,231.5C 958.653,221.004 962.153,213.337 971.5,208.5 Z"/></g>
<g><path style="opacity:1" fill="#f7f7f7" d="M 1035.5,208.5 C 1047.09,206.708 1055.26,211.041 1060,221.5C 1060.44,232.778 1055.27,240.278 1044.5,244C 1031.09,243.926 1024.26,237.092 1024,223.5C 1025.94,216.906 1029.77,211.906 1035.5,208.5 Z"/></g>
<g><path style="opacity:1" fill="#f7f7f7" d="M 988.5,257.5 C 1002.84,257.333 1017.17,257.5 1031.5,258C 1034.54,258.555 1036.38,260.388 1037,263.5C 1037.42,272.783 1033.25,279.283 1024.5,283C 1019.33,284.168 1014.16,285.335 1009,286.5C 996.329,286.81 987.662,281.143 983,269.5C 982.333,267.167 982.333,264.833 983,262.5C 984.73,260.598 986.563,258.931 988.5,257.5 Z"/></g>
<g><path style="opacity:1" fill="#969696" d="M 953.5,320.5 C 957.489,320.116 961.155,320.783 964.5,322.5C 960.64,322.192 956.974,321.525 953.5,320.5 Z"/></g>
<g><path style="opacity:1" fill="#fcfcfc" d="M 960.5,339.5 C 993.549,339.028 1026.55,339.528 1059.5,341C 1084.87,354.116 1090.7,373.282 1077,398.5C 1071.14,405.382 1063.97,410.216 1055.5,413C 1024.5,413.667 993.5,413.667 962.5,413C 943.62,407.62 933.953,395.12 933.5,375.5C 933.75,361.742 939.75,351.242 951.5,344C 954.592,342.454 957.592,340.954 960.5,339.5 Z"/></g>
</svg>
